<?xml version="1.0" encoding="utf-8"?>
<!-- Generator: Adobe Illustrator 19.0.0, SVG Export Plug-In . SVG Version: 6.00 Build 0)  -->
<svg xmlns="http://www.w3.org/2000/svg" xmlns:xlink="http://www.w3.org/1999/xlink" version="1.1" id="Layer_1" x="0px" y="0px" viewBox="0 0 1500 1500" style="enable-background:new 0 0 1500 1500;" xml:space="preserve">
<style type="text/css">
	.st0{fill:#FFFFFF;}
	/* Red accent with subtle opacity for background use */
	.st1{fill:#ff3b3b;opacity:0.22;}
</style>
<g id="XMLID_5_">
	
	<g id="XMLID_2_">
		<path id="XMLID_131_" class="st1" d="M362.8,22.8c34.5,35.7,73.2,63.6,107.3,88.3c30.7,22.2,57.1,41.3,74.4,61.3    c18.4,21.3,23.9,40.4,17.8,62.1c-25.7,90.5,1,145.2,26.7,198.2c23.4,48.1,45.6,93.6,29,164.6c-10.8,46.1-41.2,71.9-85.7,72.6    c-40.3,0.6-87-19.2-128.3-54.4c-45-38.4-78.1-90.8-93.3-147.6c-12.4-46.5-37.5-73.3-76.8-81.9c-10.7-2.3-22.1-3.3-33.9-3.3    c-26.4,0-55.2,4.8-85.3,9.7c-38.9,6.4-78.4,13-114.8,9.6v10c37.6,3.3,77.7-3.3,116.5-9.7C202,388,276,375.8,301.2,470.4    c33.6,125.9,145.2,209.5,229.3,209.5c0.7,0,1.3,0,2,0c23.5-0.4,43.6-7.1,59.8-20c17.4-13.8,29.3-34.1,35.4-60.3    c17.4-74.4-6.6-123.6-29.8-171.2c-24.9-51.2-50.7-104.2-26.1-191.1c15.3-53.8-33.8-89.3-96-134.2c-33.8-24.4-72.1-52.1-106-87.2    C365,10.7,360,5.4,355,0h-13.6C348.5,7.8,355.6,15.4,362.8,22.8z"/>
		<path id="XMLID_132_" class="st1" d="M522.2,191.7c-15.1-17.4-40.3-35.6-69.4-56.7c-35.1-25.4-74.9-54.2-111.2-91.7    C328.1,29.5,314.9,14.8,302,0h-9.3c14.3,16.5,29,32.8,43.9,48.2c36.8,38,76.8,66.9,112.2,92.5c28.8,20.9,53.7,38.9,68.3,55.6    c12.7,14.6,12.1,21.7,10.2,28.2c-29.5,103.9,1.6,167.8,29,224.1c22.3,45.8,39.9,82,26.3,140.3c-7.2,30.7-23.2,44.4-51.9,44.4    c-31.1,0-69.8-17.3-103.5-46.4c-39-33.6-67.7-79.2-80.8-128.6c-19.9-74.5-69-112.3-146-112.3c-29.5,0-60.9,5.2-91.3,10.2    c-29.6,4.9-60.2,10-87.8,10c0,0,0,0,0,0c-7.5,0-14.5-0.4-21.1-1.1v7.1c6.6,0.7,13.6,1.1,21.1,1.1c0,0,0,0,0,0    c28.1,0,59-5.1,88.9-10.1c30.1-5,61.2-10.1,90.1-10.1c73.4,0,120.3,36,139.2,107.1c13.5,50.7,43,97.6,83,132.1    c34.9,30.1,75.3,48.1,108.1,48.1c31.7,0,50.9-16.3,58.7-49.8c14.2-60.7-3.9-97.9-26.8-144.9c-26.9-55.2-57.3-117.8-28.6-219.1    C536.1,218.7,537.2,209,522.2,191.7z"/>
		<path id="XMLID_133_" class="st1" d="M424.2,176.9l-1.1-0.8c-36.8-26.6-78.5-56.8-117.9-97.5C280.7,53.4,257.5,26.2,235,0h-9.2    c1.1,1.3,2.3,2.7,3.4,4c22.7,26.5,46.2,53.9,70.9,79.5C340,124.6,381.9,155,419,181.8l1.1,0.8c31,22.5,48.5,59.9,45.5,97.7    c-6.6,84.5,22,143.3,45,190.5c6.9,14.2,12.2,33.2,15.8,56.4c2,12.8-3.5,25.2-14.2,32.4c-10.6,7.2-24.1,7.6-35.1,1    c-6.4-3.8-12.1-7.8-17-12.1c-31.3-27-54.4-63.6-64.9-103.2c-25.8-96.7-95-150-195-150c-33.7,0-67.2,5.5-99.6,10.9    c-27.6,4.6-56.1,9.3-79.5,9.3c-8.5,0-15.4-0.6-21.1-1.6v7c5.9,1,12.8,1.5,21.1,1.5c23.9,0,52.8-4.8,80.7-9.4    c32.1-5.3,65.3-10.8,98.4-10.8c96.5,0,163.3,51.4,188.2,144.8c10.9,40.9,34.8,78.8,67.1,106.7c5.2,4.5,11.3,8.8,18,12.8    c6.3,3.8,13.3,5.6,20.3,5.6c7.7,0,15.5-2.3,22.3-6.9c13-8.8,19.6-23.8,17.2-39.3c-3.6-23.8-9.2-43.5-16.4-58.4    c-22.6-46.5-50.8-104.3-44.3-186.9C475.7,240.6,457.2,200.8,424.2,176.9z"/>
		<path id="XMLID_134_" class="st1" d="M181.1,45.2c23.3,27.2,47.4,55.4,73.5,82.3c43.7,45.2,88.1,77.3,127.2,105.6l1.1,0.8    c13.3,9.6,20.7,25.5,19.5,41.5l0,0.6c-0.6,7.3-4.9,13.3-11.6,16.2c-6.6,2.8-13.8,1.7-19.3-2.9c-45-37.5-104.2-57.3-171.2-57.3    c-38.9,0-76.6,6.2-109.9,11.7l-0.8,0.1c-33.2,5.4-66.4-6-89.5-28.9v9.7c6.5,5.7,13.6,10.6,21.4,14.7    c21.4,11.3,45.4,15.2,69.3,11.4l0.8-0.1c33-5.5,70.5-11.6,108.7-11.6c65.4,0,123.1,19.3,166.8,55.7c4.8,4,10.5,6,16.4,6    c3.4,0,6.8-0.7,10.2-2.1c9-3.8,15.1-12.3,15.9-22.1l0-0.6c1.4-18.4-7.1-36.7-22.3-47.7l-1.1-0.8c-38.9-28.1-83-60-126.3-104.8    c-25.9-26.8-50-54.8-73.2-82C174,26.1,162.2,12.6,151.1,0h-9.4C154.1,13.8,167.1,28.9,181.1,45.2z"/>
		<path id="XMLID_135_" class="st1" d="M72.9,213.2c3.8,0,7.7-0.3,11.5-0.9l0.6-0.1c34.5-5.7,73.6-12.2,115.1-12.2    c3.5,0,7.1,0.1,10.5,0.1c12,0.3,22.5-6.3,27.4-17.3c4.9-11.2,2.7-23.5-5.8-32.3l-0.7-0.7c-26.8-27.7-51.2-56.2-74.8-83.8    C135,40.7,115.7,18.5,98.1,0h-6.9c18.3,19,38.6,42.3,61.7,69.3c23.7,27.6,48.1,56.2,75,84l0.7,0.7c7,7.3,8.9,17.5,4.8,26.8    c-4,9.1-12.7,14.6-22.6,14.3c-3.5-0.1-7.1-0.2-10.7-0.2c-41.9,0-81.2,6.5-115.9,12.2l-0.6,0.1c-3.6,0.6-7.2,0.9-10.7,0.9    c-25.6,0-49.3-15.1-60.3-38.4C8.2,160.5,4,150.9,0,141.2v12.9c2.6,6,5.3,12,8.1,17.8C19.9,197,45.4,213.2,72.9,213.2z"/>
		<path id="XMLID_136_" class="st1" d="M346.8,1307.1c28.8-75.3,55.9-146.5,108.8-182c69-46.5,156.4-42.3,226.7-39    c55,2.6,102.6,4.9,126.1-18.1c10.9-10.7,16-25.8,15.5-46.2c-1.4-60.5-38.4-105.3-112.9-136.9c-58.1-24.6-137.5-41.3-257.6-54    c-126-13.4-176.5-120.5-221.1-215c-24.1-51.2-46.9-99.5-79.2-126.7c-29.3-24.6-69.4-37.2-119.4-37.5c-10.8-0.1-22,0.5-33.6,1.6v10    c10.8-1.1,21.3-1.6,31.4-1.6c47.7,0,87.3,11.8,115.1,35.2c30.6,25.8,53,73.1,76.6,123.3c23,48.8,46.8,99.3,81.8,140.6    c40.3,47.6,88.5,73.8,147.3,80c119,12.6,197.6,29.1,254.7,53.3c70.6,29.9,105.5,71.7,106.8,127.9c0.4,17.5-3.7,30.2-12.5,38.8    c-20.4,19.9-65.9,17.8-118.6,15.3c-71.7-3.4-161-7.6-232.7,40.7c-55.5,37.3-83.2,109.9-112.5,186.8    c-26.1,68.3-54,141.5-105.1,196.5h13.9C294.2,1444.8,321.4,1373.7,346.8,1307.1z"/>
		<path id="XMLID_137_" class="st1" d="M432.4,1090.6c63.8-43,138.5-47.9,189.2-47.9c21.9,0,42.6,1,62.6,1.9    c16.9,0.8,32.9,1.6,47,1.6c0,0,0,0,0,0c36.4,0,45.8-5.6,48.1-8c2-2.1,3.1-7.8,2.9-15.4c-0.5-22-7.4-39.9-21.6-56.1    c-14.3-16.4-36.6-31-66-43.5c-54.2-22.9-130-38.7-245.8-50.9c-149.2-15.8-207.5-139.3-254.3-238.6    c-22.1-46.9-43.1-91.3-68.4-112.6c-21.9-18.5-53.7-27.8-94.5-27.8c-10.2,0-20.8,0.6-31.8,1.8v7c10.9-1.2,21.6-1.8,31.8-1.8    c39.1,0,69.3,8.8,90,26.2c24.2,20.4,44.8,64,66.6,110.3c47.5,100.8,106.7,226.3,259.8,242.5c115.1,12.2,190.3,27.8,243.8,50.4    c28.5,12.1,49.9,26.1,63.5,41.7c13.1,14.9,19.4,31.4,19.9,51.7c0.2,6.8-0.8,9.8-1.1,10.5c-1.3,0.9-9.7,5.7-42.9,5.7c0,0,0,0,0,0    c-14,0-29.9-0.8-46.7-1.5c-20.1-1-40.9-1.9-63-1.9c-51.6,0-127.7,5.1-193.1,49.1c-65.6,44.2-95.4,122.3-127,205    c-24,62.9-48.8,127.9-90,176.3c-11,12.9-22.7,24.1-35.4,33.9h11.2c10.5-8.7,20.3-18.5,29.6-29.4c42-49.3,67-114.9,91.2-178.3    C339.2,1210.7,368.7,1133.6,432.4,1090.6z"/>
		<path id="XMLID_138_" class="st1" d="M376.5,1007.7l0.5-0.4c9-6,13.6-16.4,12-27.1c-1.6-10.7-9-19.3-19.4-22.5    c-155.4-47.9-221.7-188.4-265.5-281.5c-9.6-20.3-18.7-39.6-27.3-55.2c-0.4-0.8-0.8-1.5-1.2-2.2c-8.8-15.8-25.5-25.6-43.5-25.6    l-0.5,0c-9.7,0-20.4,0.9-31.8,2.6v7.1c11.4-1.8,22.1-2.7,31.8-2.7l0.5,0c15.4,0,29.8,8.5,37.4,22.1c0.4,0.7,0.8,1.4,1.2,2.2    c8.5,15.5,17.5,34.6,27.1,54.9c21.9,46.5,49.2,104.4,91.5,158.2c50.2,63.9,108.5,105.5,178.3,127c7.9,2.4,13.3,8.7,14.5,16.8    c1.2,8.1-2.2,15.7-9,20.3l-0.6,0.4c-91.8,61.9-130.5,163-164.5,252.3c-21,55-42.7,111.8-72.7,147.1    c-12.9,15.2-26.6,25.7-43.1,33.1c-18.5,8.3-41.1,13-69.1,14.3c-2.9,0.1-5.9,0.2-8.9,0.2c-4.7,0-9.5-0.2-14.3-0.5v7    c4.8,0.3,9.6,0.5,14.3,0.5c3.1,0,6.2-0.1,9.2-0.2c28.9-1.3,52.3-6.2,71.6-14.9c17.5-7.8,32-18.9,45.5-34.9    c30.8-36.2,52.7-93.6,74-149.2C248.3,1168.4,286.5,1068.3,376.5,1007.7z"/>
		<path id="XMLID_139_" class="st1" d="M21.7,1415.6c23.8-1.1,42.4-4.8,57.1-11.4c12-5.4,21.7-12.9,31.5-24.4    c26.4-31,47-85.1,67-137.5c19.6-51.4,41.9-109.7,76.4-163c32-49.5,21.8-115.1-23.7-152.7C145.1,856.6,98.7,758.3,68.1,693.3    c-4.7-10-11.6-23.9-16.6-33.7c-8.2-16.3-25.9-25.3-43.9-22.2c-2.4,0.4-5,0.9-7.6,1.3v7.1c3-0.6,6-1.1,8.7-1.5    c2-0.3,3.9-0.5,5.8-0.5c12.8,0,24.7,7.1,30.6,18.9c4.9,9.8,11.8,23.6,16.5,33.6c30.9,65.6,77.7,164.7,163.7,235.8    c42.8,35.4,52.4,97.1,22.3,143.5c-34.9,53.9-57.3,112.5-77,164.3c-19.8,51.8-40.3,105.4-65.8,135.5c-9,10.6-18,17.5-29,22.5    c-13.8,6.2-31.7,9.7-54.5,10.8c-2.3,0.1-4.7,0.2-7,0.2c-4.7,0-9.5-0.3-14.3-0.7v7.1c4.8,0.4,9.6,0.7,14.3,0.7    C16.7,1415.8,19.2,1415.8,21.7,1415.6z"/>
		<path id="XMLID_140_" class="st1" d="M19,1357.2c15.8-0.7,28.2-2.9,35.8-6.3c3.3-1.5,6.3-3.5,10.9-8.9    c19.8-23.3,39.6-74.9,56.9-120.5c20.7-54.1,44.1-115.5,81.9-173.9c15.9-24.5,10.8-57.1-11.9-75.8C97.7,893.4,48,788,15.1,718.3    l-0.1-0.2c-3.2-6.7-8.6-11.9-15-14.8v11.6c2.5,1.9,4.6,4.5,6,7.5l0.1,0.2c33.3,70.5,83.5,177.1,180.2,257    c18.7,15.5,23,42.4,9.8,62.7c-38.4,59.3-62,121.2-82.9,175.8c-17.1,44.8-36.5,95.6-55.2,117.6c-4.1,4.8-5.9,5.6-7.4,6.3    c-3.7,1.7-12.8,4.6-32.2,5.5c-1.4,0.1-2.8,0.1-4.2,0.1c-4.6,0-9.4-0.4-14.3-1.1v10.1c4.9,0.7,9.6,1,14.3,1    C15.9,1357.3,17.4,1357.3,19,1357.2z"/>
		<path id="XMLID_143_" class="st1" d="M511.6,991.1c15.8-0.6,35.6-1.4,59.1-0.1c11.9,0.7,23.2,1.1,33.5,1.1    c12.2,0,23.2-0.5,32.5-1.5c21.9-2.3,33.2-7.1,35.7-15.2c3.1-10.2-9.3-19-18.9-24.7c-47.6-28.4-170.7-21.1-176.8-20.7    c-16,0.6-23.2,7.1-26.4,12.4c-3.5,5.7-5.9,16,2.1,32.7C461.1,993.1,481.2,992.3,511.6,991.1z M458.9,947.6    c3.5-5.8,11.9-7.3,18.2-7.6l0.1,0c1.3-0.1,126-7.6,171.1,19.3c15.2,9,14.4,13.1,14.4,13.2c0,0.1-2,5.5-27.2,8.2    c-16.6,1.8-38.9,1.9-64.4,0.4c-9.7-0.6-18.8-0.8-27.3-0.8c-12.3,0-23.2,0.4-32.8,0.8c-30.5,1.2-44.2,1.3-49.7-10.2    C456.7,960.8,455.8,952.8,458.9,947.6z"/>
		<path id="XMLID_144_" class="st1" d="M105.6,1077.8c0.6-42.1-13.8-85.9-39.6-120.3C40.7,923.9,17,879.4,0,844v22.6    c16.2,32.1,36.5,68.3,58,96.9c46.2,61.5,57.9,161.5-11.4,225.8C30.4,1204.4,14.7,1217,0,1227v12c16.7-10.7,34.7-24.9,53.4-42.2    C86.9,1165.7,104.9,1124.6,105.6,1077.8z"/>
		<path id="XMLID_145_" class="st1" d="M1000.1,1390.4c88.4-50.8,147.1-121.2,179.4-215.1c30.4-88.4,34.6-188.1,34.6-282.7    c0-116.7,49.3-167.4,106.3-226.2c39.3-40.5,83.8-86.4,116.7-160.3c22.3-50.2,33.1-102.6,31.1-151.6    c-1.8-45.1-14.2-86.8-35.7-120.4c-29.7-46.4-74.5-73.4-122.9-74c-0.8,0-1.6,0-2.5,0c-58.1,0-105.1,26.7-143.5,81.6    c-36.4,52-65.9,129.3-93,243.2c-3.3,13.8-6.4,27.1-9.4,39.9c-21.4,91.3-36.9,157.3-63.3,203.9c-26.9,47.5-64.3,74.9-129.3,94.5    c-30.9,9.3-50.9,9.8-63,1.4c-17.3-11.9-19.6-42.3-22.7-84.3c-3.8-50.8-8.9-120.4-46.4-192.1c-41-78.5-21.6-135.1-2.9-189.7    c20.8-60.5,40.4-117.7-31.2-192.4C652.9,114.5,635.3,58.6,649.9,0h-10.3c-5.6,23.8-6.1,47.5-1.5,70.7c7,35.8,26.3,70.2,57.1,102.4    c67.4,70.3,49.6,122.2,29,182.3c-18.5,54-39.5,115.2,3.5,197.6c36.5,69.9,41.4,135.5,45.3,188.2c3.3,44.8,5.7,77.2,27,91.8    c14.9,10.2,37.6,10.2,71.6-0.1c66.8-20.2,107.3-49.8,135.2-99.2c27.1-47.9,42.7-114.5,64.4-206.6c3-12.8,6.1-26.1,9.4-39.9    c26.8-112.6,55.8-188.8,91.5-239.8c36.9-52.8,81.9-78.1,137.6-77.4c45,0.6,86.8,25.9,114.6,69.4c44.6,69.7,46.1,167.8,3.9,262.6    c-32.2,72.3-74.2,115.5-114.8,157.4c-28.9,29.7-56.1,57.8-76.2,93.6c-22.5,40-32.9,84.4-32.9,139.6c0,186.7-16.1,378.3-209,489.1    c-43.9,25.2-74,53.3-89.3,83.5c-5.8,11.4-9.5,23-11.1,34.8h10.1C910.8,1460.1,942.8,1423.3,1000.1,1390.4z"/>
		<path id="XMLID_146_" class="st1" d="M1265.6,892.6c0,195.8-18.5,415.3-239.8,542.5c-37.1,21.3-60.7,44-68.1,65h7.4    c7.6-18.7,29.8-39.2,64.1-58.9c224.5-129.1,243.3-350.8,243.3-548.5c0-92.9,35.7-129.7,89.8-185.4c42.7-44,91.1-93.8,128.2-177.2    c3.4-7.6,6.5-15.2,9.4-22.9v-20.9c-4.5,13.7-9.8,27.3-15.8,40.9c-36.6,82.2-84.6,131.6-126.8,175.2    C1302.1,759.2,1265.6,796.8,1265.6,892.6z"/>
		<path id="XMLID_147_" class="st1" d="M764.1,447.8c-1.7,25.4,4,49.8,18,76.7c42.4,81.2,48,156.9,52.1,212.1    c0.6,8.1,1.3,17.3,2.1,25.9c0.4,4,2.5,7.6,5.9,9.8c3.3,2.2,7.5,2.9,11.3,1.7l0.1,0c59.7-18,82.3-40.4,99.4-70.6    c22.8-40.2,37.5-103.2,58-190.4c3-12.8,6.1-26.2,9.4-40c28.4-119.5,60.2-202,100-259.5c48.2-69.6,111-105,186.6-105    c1,0,2.1,0,3.1,0c66,0.8,126.4,36.5,165.6,97.7c9.6,15,17.6,30.9,24.1,47.6v-18c-5.3-11.6-11.3-22.7-18.2-33.4    c-40.5-63.3-103-100.1-171.4-100.9c-1.1,0-2.1,0-3.2,0c-78,0-142.7,36.3-192.3,108c-40.3,58.2-72.4,141.4-101.1,261.8    c-3.3,13.9-6.4,27.2-9.5,40.1c-20.3,86.6-35,149.1-57.3,188.5c-16.2,28.7-37.8,49.9-95.3,67.3l1,3.4l-1.1-3.3    c-1.8,0.6-3.8,0.3-5.4-0.8c-1.6-1.1-2.6-2.8-2.8-4.7c-0.8-8.5-1.5-17.7-2.1-25.8c-4.1-55.9-9.8-132.4-52.9-214.9    c-13.4-25.7-18.9-48.9-17.3-72.9c1.6-23.2,9.5-46.3,17.9-70.7c10.6-31,23.8-69.5,22.1-112c-2.1-49.7-23.8-95.4-66.4-139.9    c-21.6-22.6-34.9-45.5-39.3-68.2c-3.3-16.9-1.9-34.7,4.1-52.8c0.5-1.6,1.1-3.1,1.7-4.6h-7.5c-0.3,0.8-0.6,1.6-0.8,2.4    c-6.5,19.3-7.9,38.3-4.3,56.4c4.7,24,18.6,48.2,41.2,71.7c93.3,97.4,64.1,182.6,42.7,244.8C773.8,400.2,765.7,423.7,764.1,447.8z"/>
		<path id="XMLID_148_" class="st1" d="M1038.4,156.6c67.1-96.8,160-148,268.8-148c1.5,0,2.9,0,4.4,0    c70.2,0.9,135.7,26.9,188.4,73.3v-9.3c-53.2-45-118.4-70.1-188.3-71c-1.5,0-3,0-4.5,0c-111.2,0-206.1,52.2-274.5,151    c-47.6,68.8-84.5,162.7-116.1,295.6c-3.3,14-6.5,27.4-9.5,40.3l-0.1,0.5c-1.4,5.9-6,8.4-10,8.8c-3.9,0.4-9-1.1-11.7-6.5    c-2.6-5.5-5.4-11.1-8.2-16.5c-6.6-12.7-6.3-17.6-6.1-20c0.7-10,6.5-27,12.7-45c23.3-67.9,71.7-209.1-66.7-353.5    c-8.6-8.9-12.2-15.4-13.2-17.8c0.1-0.5,0.3-1.2,0.6-2.3c2.5-7.4,7.8-15,10.7-18.4L833.4,0h-10L810,13l-0.2,0.3    c-0.9,1-8.6,10.4-12.1,20.8c-0.8,2.3-1,3.8-1.1,4.6l0,0.6l0.2,0.6c1.1,3.7,5.7,11.5,15.1,21.3c135.5,141.3,88,279.9,65.1,346.4    c-6.3,18.4-12.3,35.9-13,46.8c-0.2,3-0.6,9.2,6.9,23.7c2.8,5.3,5.5,10.8,8.1,16.3c3.4,7.2,10.8,11.3,18.7,10.4    c7.9-0.9,14.2-6.4,16-14.2l0.1-0.5c3-12.9,6.2-26.3,9.5-40.3C954.7,317.9,991.3,224.7,1038.4,156.6z"/>
		<path id="XMLID_149_" class="st1" d="M1378,831.8c-6.2,10.9-12.5,26.7-12.5,60.8c0,154.2,0,437.4-254.9,607.4h12.5    c249.4-172.6,249.5-453.6,249.5-607.4c0-32.5,5.8-47.3,11.5-57.4c9.3-16.5,27.3-35,50-58.4c20.5-21.1,43.1-44.4,65.9-72.6v-11.2    c-24.4,31.1-49,56.4-70.9,79C1406,795.7,1387.8,814.5,1378,831.8z"/>
		<path id="XMLID_150_" class="st1" d="M918.1,123.6c7.4,14.6,21.6,23.9,37.9,25c16.3,1.1,31.5-6.3,40.8-19.8l0.5-0.7    c39.2-56.6,86.4-99.6,139.9-128.2h-14.5c-49.9,28.9-94,70.5-131.2,124.2l-0.5,0.7c-7.9,11.4-20.8,17.7-34.6,16.8    c-13.8-0.9-25.8-8.8-32.1-21.2c-5.7-11.2-12.2-22.4-19.2-33.2c-17.5-27-16.3-61.8,1.8-87.2h-8.4c-17.1,27.3-17.4,63,0.7,91    C906.1,101.7,912.5,112.7,918.1,123.6z"/>
		<path id="XMLID_151_" class="st1" d="M1421.6,856.3c-1.8,3.2-6,10.7-6,36.3c0,137.4,0,420-221.8,607.4h10.7    c46.1-40.1,85.3-86.6,116.6-138.6c30.9-51.3,54.9-109.3,71.4-172.3c30-114.6,30-224,30-296.4c0-23.8,3.7-30.4,5.1-32.8    c6.1-10.8,22.9-28.1,42.3-48.1c9.4-9.7,19.5-20.1,30-31.4v-10.3c-12.3,13.5-24.2,25.7-35,36.9    C1445.2,827.1,1428.1,844.7,1421.6,856.3z"/>
		<path id="XMLID_152_" class="st1" d="M1500,10c-5.2-3.5-10.5-6.8-15.8-10h-14.1c10.3,5.6,20.2,11.8,29.9,18.5V10z"/>
		<path id="XMLID_155_" class="st1" d="M877.6,584.2c-8.5,3-12.4,15.1-11.8,37.2c0.9,34.3,9.4,56.4,23.1,60.6c1.4,0.4,3,0.7,4.7,0.7    c6.1,0,14.1-3.5,23.2-16.1c12.3-17.2-0.7-50.4-13.4-67.4C894.2,587,885.1,581.6,877.6,584.2z M911.2,662.6    c-7.2,10-14.3,14.5-20.1,12.7c-7.8-2.4-17.2-18-18.2-54.1c-0.7-25.7,5.3-29.8,7.1-30.4c0.5-0.2,1-0.2,1.5-0.2    c4.2,0,10.4,4.8,16.4,12.9C911.5,621.9,920.2,650,911.2,662.6z"/>
		<path id="XMLID_158_" class="st1" d="M1216.1,576c2.5,0.2,5.1,0.3,7.7,0.3c17.9,0,37.2-4.3,56.3-12.5    c34.5-14.8,64.9-41.2,85.5-74.2c24.4-39,35.1-87,31-138.7l0-0.3c-0.4-2.4-9.4-59.1-45.7-83.8c-15.6-10.7-34-13.7-54.5-9.1    c-23.5,5.3-50.6,27.6-76.3,62.7c-23.6,32.4-44.3,73.2-56.6,112.1c-8.2,25.7-12.5,49.9-12.4,70c0,22.7,5.4,40.2,16,51.9    C1178.4,567,1195.4,574.5,1216.1,576z M1170.2,434.6c12.1-38.2,32.4-78.3,55.6-110.1c24.7-33.7,50.3-55.1,72.2-60    c5.7-1.3,11.1-1.9,16.4-1.9c12,0,22.9,3.3,32.6,9.9c33,22.5,42.3,76.1,42.7,79c8.9,112.3-52.2,180-112.3,205.8    c-42.4,18.2-84.6,15.2-105.1-7.6C1154.1,529.6,1153.4,487.6,1170.2,434.6z"/>
		<path id="XMLID_161_" class="st1" d="M1203,521.9l0.7,0.6c3.5,3.2,11.1,5.2,20,5.2h0c20.9,0,55.4-11,84.1-42    c21-22.8,45.2-63.6,40.7-128.7l-0.1-0.6c-0.8-4-3.9-17.9-10.5-31c-9.6-19.1-18-21.3-23.4-21.3c-2.2,0-4.6,0.3-7.3,0.9    c-5.8,1.3-20.8,10-40.3,34.3c-18.2,22.6-35.2,52-47.8,82.7c-10.1,24.6-16.5,47.9-18.6,67.6c-2.2,20.7,1.2,29.4,2.3,31.6    L1203,521.9z M1210.3,490.6c2-18.7,8.2-41.2,18-64.9c12.3-29.8,28.7-58.3,46.4-80.2c18.5-22.9,31.6-30.1,34.8-30.8    c2-0.4,3.7-0.7,5.1-0.7c5.7,0,11.5,9.9,14.5,15.8c5.9,11.7,8.8,24.2,9.6,28.2c4.2,61.3-18.4,99.6-38,120.9    c-26.5,28.7-57.9,38.8-76.8,38.8h0c-7,0-11-1.4-12.6-2.1C1210.3,513.1,1208.6,505.8,1210.3,490.6z"/>
		<path id="XMLID_162_" class="st1" d="M977,1290.2c31.8-30.9,61.8-60,84.2-92.4c25-36,38.5-73,42.8-116.4    c1.6-16.1,3.4-32.6,5.1-48.4c5.1-46.6,9.9-90.6,9.3-127c-0.7-42.3-8.7-68.1-25.3-81.1c-14.9-11.8-35.7-12.6-63.7-2.6    c-57.8,20.7-70.6,92.1-84.1,167.7c-13.6,76.3-27.7,155.3-88.6,188.7c-48.5,26.6-101.2,22.5-157.1,18.1    c-82.6-6.4-168-13.1-236.6,87.5c-45.9,67.3-82.6,148.1-108.9,215.8h10.7c25.9-66.4,61.8-144.8,106.4-210.2    c65.4-95.8,144.2-89.6,227.6-83.1c54.9,4.3,111.6,8.7,162.7-19.3c29.3-16.1,51-43.2,66.3-82.9c13.4-34.6,20.5-74.3,27.3-112.8    c13-72.7,25.2-141.3,77.6-160c24.5-8.7,42.2-8.4,54.2,1c31.3,24.7,22.1,109.5,12.3,199.2c-1.7,15.9-3.5,32.3-5.1,48.5    c-8.8,90.7-59.7,140-124,202.6c-35.7,34.7-76.2,74-115,126.3c-20.5,27.6-35.6,58-45.1,90.7h10.6c8.4-28.1,21.8-56.9,42.5-84.7    C901.4,1363.6,941.6,1324.7,977,1290.2z"/>
		<path id="XMLID_163_" class="st1" d="M948.1,1260.5c31.6-30.7,58.9-57.2,79-86.3c21.1-30.4,32-60.2,35.6-96.7    c1.6-16.3,3.4-32.7,5.1-48.5l0-0.3c4.8-43.8,9.3-85.3,9.1-118.6c-0.1-11.4-0.7-21.4-2-29.7c-1-7.1-5.2-13.3-11.3-17    c-6.1-3.7-13.4-4.4-20-2.1l-0.3,0.1c-9.9,3.5-22.8,11.4-34.5,40.7c-10.3,25.8-16.3,59.5-22.7,95.2    c-14.6,81.9-31.2,174.8-109.5,217.7c-43.1,23.6-87.3,26.4-116.8,26.4c-21.4,0-42.8-1.7-63.5-3.3c-20.3-1.6-39.4-3.1-58.2-3.1    c-54.8,0-99.8,12.3-140.9,72.6c-39.9,58.4-72.8,127.7-98.6,192.4h7.5c25.5-63.6,57.8-131.3,96.8-188.5    c39.4-57.7,82.5-69.5,135.1-69.5c18.5,0,37.5,1.5,57.7,3.1c20.8,1.6,42.3,3.3,64.1,3.3c30.2,0,75.6-2.8,120.1-27.2    c81.2-44.6,98.1-139.2,113.1-222.6c6.3-35.4,12.3-68.8,22.3-93.9c10.7-26.7,21.8-33.6,30.4-36.7l0.3-0.1c4.7-1.6,9.8-1.1,14.1,1.5    c4.3,2.6,7.2,7,8,12c1.2,8,1.8,17.7,1.9,28.7c0.2,32.9-4.3,74.2-9,117.8l0,0.3c-1.7,15.9-3.5,32.3-5.1,48.6    c-3.4,35.3-14,64.1-34.4,93.4c-19.8,28.5-46.8,54.8-78.2,85.2c-36.7,35.7-78.4,76.1-119.1,130.9c-25.5,34.3-43.6,72.5-53.9,113.6    h7.2c10.2-39.6,27.8-76.4,52.3-109.5C870.1,1336.2,911.5,1296,948.1,1260.5z"/>
		<path id="XMLID_164_" class="st1" d="M782,1348.3c6.2-8.3,7.2-19.1,2.6-28.4c-4.6-9.3-14-15.1-24.4-15.1c0,0,0,0,0,0h-0.4    c-23.9,0-46.6-1.8-68.5-3.5c-19-1.5-36.9-2.9-53.2-2.9c-39.2,0-62.4,6.7-88.5,44.9c-32.2,47.2-59.9,103.5-82.2,156.6h10.9    c21.8-51.5,48.6-105.5,79.6-151c23.8-34.9,43.2-40.5,80.2-40.5c15.9,0,33.7,1.4,52.5,2.9c22.1,1.7,44.9,3.5,69.2,3.5h0.4    c0,0,0,0,0,0c6.7,0,12.4,3.6,15.4,9.5c3,5.9,2.3,12.6-1.6,17.9c-1.1,1.5-2.2,2.9-3.3,4.4c-34.1,45.8-57.2,97.7-68.8,153.3h10.2    c11.5-53.5,33.9-103.3,66.6-147.3C779.8,1351.2,780.9,1349.8,782,1348.3z"/>
		<path id="XMLID_165_" class="st1" d="M1369.9,1451.1c61-76,85.1-237.3,94.1-326.6c6.9-68.5,23.9-88.1,33.4-93.6    c0.9-0.5,1.8-0.9,2.6-1.3v-10.5c-2.3,0.6-4.7,1.5-7.2,2.9c-20.1,11.3-33.2,45.5-38.8,101.5c-6.7,66.8-17.4,129.6-31,181.5    c-16.5,63-37,110.1-60.9,139.9c-15.3,19.1-22,38.2-19.7,55.1h10.2C1350.1,1485.5,1356,1468.4,1369.9,1451.1z"/>
	</g>
	<g id="XMLID_3_">
		<path id="XMLID_13_" class="st1" d="M669.1,820.8c-0.5,0-1,0-1.5,0c-24-0.3-51-8.3-78-22.9c-22.2-12.1-32.3-29.7-27.7-48.5    c5.2-21.1,28.8-38.6,52.5-38.9c0.2,0,0.4,0,0.6,0c30.8,0,97.5,29.2,112.7,59.7c4.8,9.6,4.2,18.7-1.8,26.4    C713.7,812.5,694,820.8,669.1,820.8z M615.1,720.5c-0.2,0-0.4,0-0.6,0c-19.5,0.3-38.7,14.3-42.9,31.3    c-3.5,14.2,4.6,27.5,22.7,37.3c52.5,28.5,102.2,29,123.7,1.3c3.6-4.6,3.8-9.6,0.7-15.8C706.4,749.8,645,720.5,615.1,720.5z"/>
	</g>
	<g id="XMLID_4_">
		<path id="XMLID_10_" class="st1" d="M1146.3,785.3c-24.3,0-44-19.1-50.2-48.6c-4.7-22.3-3.7-48.7,2.8-74.2    c6.3-24.8,17.1-45.3,29.6-56.4c9.9-8.8,20.7-11.5,31.2-7.9c45.6,15.6,59.4,54,44.8,124.4c-4.1,19.6-12,35.8-22.9,46.8    C1171.6,779.6,1159,785.3,1146.3,785.3C1146.3,785.3,1146.3,785.3,1146.3,785.3z M1150.7,606.7c-5.2,0-10.4,2.3-15.6,6.9    c-21.7,19.2-38.8,75-29.2,121c5.2,24.7,21,40.6,40.4,40.6c0,0,0,0,0,0c17.1,0,40-14.3,48.4-54.6c17-82.1-9.8-103.2-38.2-112.9    C1154.5,607.1,1152.6,606.7,1150.7,606.7z"/>
	</g>
	<path id="XMLID_17_" class="st1" d="M550,1500c8.1-36.1,27.6-101.8,64.7-121.2c13.1-6.9,30.9-13.3,41.3-5c12,9.5,13.3,36.5,3.5,74   c-5.1,19.8-13.8,37.8-24.4,52.3h12.3c9.4-14.2,16.9-31.2,21.7-49.7c11-42.1,8.5-72.1-7-84.4c-11.8-9.3-29.3-8-52.2,4   c-41.8,21.9-62.3,93-70.3,130.1H550z"/>
</g>
</svg>
