<svg xmlns="http://www.w3.org/2000/svg" viewBox="0 0 24 24" fill="#fff">
  <path d="M12 .5C5.73.5.98 5.24.98 11.5c0 4.86 3.15 8.98 7.51 10.43.55.1.75-.24.75-.53 0-.26-.01-.94-.01-1.84-3.06.67-3.71-1.48-3.71-1.48-.5-1.27-1.22-1.61-1.22-1.61-.99-.68.08-.67.08-.67 1.1.08 1.68 1.13 1.68 1.13.98 1.67 2.57 1.19 3.2.91.1-.71.38-1.19.69-1.46-2.44-.28-5.01-1.22-5.01-5.44 0-1.2.43-2.17 1.13-2.94-.11-.28-.49-1.41.11-2.93 0 0 .93-.3 3.05 1.13a10.5 10.5 0 0 1 5.56 0c2.12-1.43 3.05-1.13 3.05-1.13.6 1.52.22 2.65.11 2.93.7.77 1.13 1.74 1.13 2.94 0 4.23-2.58 5.16-5.03 5.43.39.33.73.98.73 1.98 0 1.43-.01 2.58-.01 2.94 0 .29.2.64.76.53A10.99 10.99 0 0 0 23.02 11.5C23.02 5.24 18.27.5 12 .5z"/>
</svg>

