<svg xmlns="http://www.w3.org/2000/svg" viewBox="0 0 24 24">
  <rect x="2" y="2" width="20" height="20" rx="3" fill="#f7df1e"/>
  <path d="M10.8 17.5c0 1.6-.9 2.5-2.5 2.5-1.1 0-1.8-.5-2.2-1.2l1.2-.7c.2.3.5.5 1 .5.6 0 1-.3 1-.9v-6.7h1.5v6.5Zm2.2 1.3 1.2-.7c.3.5.8.9 1.6.9.7 0 1.2-.3 1.2-.8s-.3-.7-1.3-1.1l-.4-.2c-1.1-.5-1.9-1.1-1.9-2.4 0-1.2.9-2.2 2.4-2.2 1 0 1.8.3 2.3 1.3l-1.2.8c-.3-.5-.6-.7-1.1-.7s-.9.3-.9.8c0 .5.4.7 1.3 1.1l.4.2c1.3.6 2.1 1.2 2.1 2.6 0 1.5-1.1 2.3-2.7 2.3-1.5 0-2.4-.6-3-1.3Z"/>
</svg>

